<svg id="Lager_1" data-name="Lager 1" xmlns="http://www.w3.org/2000/svg" xmlns:xlink="http://www.w3.org/1999/xlink" viewBox="0 0 156.19 341.83"><defs><style>.cls-1{fill:url(#Namnlös_övertoning_34);}.cls-2{fill:#fff;}.cls-3{fill:#588757;}</style><linearGradient id="Namnlös_övertoning_34" x1="34.33" y1="234.37" x2="80.44" y2="261" gradientUnits="userSpaceOnUse"><stop offset="0" stop-color="#cd7900"/><stop offset="1" stop-color="#f9b233"/></linearGradient></defs><path class="cls-1" d="M132.48,147.13A14.51,14.51,0,0,0,122,136.91a28.43,28.43,0,0,0-4.89-.74,19.57,19.57,0,0,0-10-6.3,3,3,0,0,1-1.82.66H104c-6.59,5.75-12.31,12.38-18.65,18.39a3,3,0,0,1-1.62.78,12.71,12.71,0,0,1-1,2.4A32.88,32.88,0,0,1,80,156.35c-1.09,1.5-2.1,3-3.11,4.59a33.66,33.66,0,0,0-3.28,5.93,18.63,18.63,0,0,1-2.2,5.08c-.24.42-.49.83-.75,1.25a2,2,0,0,1-.13,1c-.09.24-.19.46-.29.69h0c-1.73,4.14-4.08,8-6,12a2.66,2.66,0,0,1-.1.93,90.34,90.34,0,0,1-3.26,9.28l-.9,2a10.78,10.78,0,0,1-.58,3,19.75,19.75,0,0,1-.84,7.25c-.94,2.51-2.21,4.84-3,7.41a33.61,33.61,0,0,1-3.09,7.61,2.8,2.8,0,0,1-.42,3.37l-.82.81a3.1,3.1,0,0,1,0,1.18,8.66,8.66,0,0,1-.77,1.92,3.94,3.94,0,0,1-.86,1.28,3.62,3.62,0,0,1,.09,1.61c-.49,2.9-2.12,5.39-3.37,8a57,57,0,0,0-2.9,8.36c-.9,3-2,5.9-3,8.83a36.1,36.1,0,0,1-1.58,3.74,2.83,2.83,0,0,1,0,.3.92.92,0,0,1,0,.16c0,.27-.06.55-.11.82,0,0,0,0,0,.07s0,.1-.05.14a.14.14,0,0,1,0,.07c-.1.25-.21.5-.31.74a2,2,0,0,1-.13.25l0,.05-.32.42a2.55,2.55,0,0,0,.13.55,2.9,2.9,0,0,1-1.83,3.48c-.63,1.69-1.3,3.34-1.89,4.9-2.29,6.05-4.79,12.21-5.21,18.73a3.13,3.13,0,0,1-1.52,2.52,2.35,2.35,0,0,1-.13.74c-1.14,3.1-1.79,6.34-2.72,9.51-.41,1.39-.91,2.75-1.38,4.11-.09,1.25-.18,2.49-.34,3.74a18.07,18.07,0,0,1-1.42,5.81c0,1.08,0,2.17,0,3.27a62.22,62.22,0,0,1-1,8.6c-.9,5.65-.62,11.47-1.83,17.07-.11.53-.23,1.06-.31,1.6,0,.11-.1.67-.11.77l-.12.89c-.23,1.81-.46,3.62-.8,5.41a12.74,12.74,0,0,1-2.1,5.54c.11,2,.06,4.09.2,6.13a11.22,11.22,0,0,0,.53,2.65c.48-1,1-2.08,1.47-3.11a2,2,0,0,1,.2-.3V369c.12-1.05.22-2.09.35-3.14a3.69,3.69,0,0,1,.6-1.72,32.33,32.33,0,0,1,1.91-7.81,2,2,0,0,1,.7-.86,2.92,2.92,0,0,1,1.37-2.92,18.38,18.38,0,0,1,1.58-4.87,2.74,2.74,0,0,1,.77-.9,2.39,2.39,0,0,1,.62-1.73,2.8,2.8,0,0,1,.35-1.41l3.12-6a2.9,2.9,0,0,1,.34-1.08c.43-.82.88-1.62,1.35-2.42a.88.88,0,0,1,0-.16c0-.26.07-.52.11-.77a9.37,9.37,0,0,1,.66-1.64,7.52,7.52,0,0,1,.52-.92c.39-.61.82-1.19,1.22-1.79A3.22,3.22,0,0,1,34,328c1.29-3,2.36-6.08,4.25-8.8a3.61,3.61,0,0,1,1.09-1c.41-.94.81-1.89,1.22-2.84a2,2,0,0,1,.69-.84c.56-4,3-7.48,5.15-10.8,2.68-4.18,5.1-8.54,8-12.58a3.44,3.44,0,0,1,.58-.62c.66-1.38,1.32-2.74,2-4.13a8.9,8.9,0,0,0,.77-2.7l.34-.76.12-.16c2.81-3.86,5.5-7.82,8.11-11.87a4.06,4.06,0,0,1,.24-.72,21.57,21.57,0,0,1,1.33-2.63,2.28,2.28,0,0,1,.1-.52,18.75,18.75,0,0,1,2.61-4.77c.15-.21.3-.43.46-.64,0-.06,0-.13.06-.19a2.77,2.77,0,0,1,1.19-1.85c.34-.49.67-1,1-1.51v0A45,45,0,0,1,77.52,250l0,0a2.89,2.89,0,0,1,.35-1.11l.45-.59.15-.11a17.58,17.58,0,0,1,1.63-3.67c.44-.81.92-1.58,1.41-2.35a28.27,28.27,0,0,1,5.08-9.83,1.88,1.88,0,0,1,.47-.39,48.55,48.55,0,0,1,2.54-5.17,2.85,2.85,0,0,1,.68-.8,21.8,21.8,0,0,0,.59-4.67,35.4,35.4,0,0,0,3.93-4.49,3.32,3.32,0,0,1,.08-.89c0-.11.06-.21.1-.32.12-.31.26-.63.4-.94a4.48,4.48,0,0,1,.32-.56A10.14,10.14,0,0,1,97,212.51a3,3,0,0,1,.4-.31,51.94,51.94,0,0,1,4.73-8.53,3.62,3.62,0,0,1,.79-.82,127.65,127.65,0,0,1,6.24-11.36c1.42-1.89,2.85-3.79,4.31-5.65a9.24,9.24,0,0,0,1.44-2.63c.43-.25.83-.54,1.23-.82.29-.47.59-.94.91-1.4a51.49,51.49,0,0,0,3.54-5.58,2.51,2.51,0,0,1,1.76-1.32,19.46,19.46,0,0,0,.94-3.62c1.61-2.2,3.21-4.41,4.75-6.65.55-.8,1.08-1.63,1.57-2.48.33-.94.63-1.88.87-2.84.14-.58.27-1.17.37-1.76v0c-.06-.48,0-.26,0,0v0a3.19,3.19,0,0,1,.05-.42c0-.27,0-.54.06-.82a2.94,2.94,0,0,1,1.82-2.65A14.69,14.69,0,0,0,132.48,147.13Z" transform="translate(-13.09 -37.19)"/><path class="cls-2" d="M130.9,140.19a5.45,5.45,0,0,0-1.18-1.26c-3.14-2.1-6.43-3.85-10.32-4.07a3.08,3.08,0,0,1-.7-.21s0,0,0,0a2.48,2.48,0,0,1-1.57,0l0,0a4.14,4.14,0,0,1-.72-.38s0,0,0-.06a2.73,2.73,0,0,1-.34-.34,7.12,7.12,0,0,1-.69-1,1.6,1.6,0,0,1-.42.17,7.73,7.73,0,0,1-1.63-1.65A4,4,0,0,0,112,130.2a9.45,9.45,0,0,0-5.68-.78,14.12,14.12,0,0,0-5.14,2.18c-1.13.76-2.28,1.51-3.39,2.31a30.43,30.43,0,0,0-7,6.44c-1.15,1.56-2.35,3.1-3.55,4.63a66.92,66.92,0,0,0-6.48,9.18c-.62,1.13-1.33,2.23-2.06,3.3a67.32,67.32,0,0,0-6.92,13.18c-.24.59-.52,1.18-.81,1.75-.65,1.29-1.33,2.56-2,3.86-.91,1.88-1.79,3.78-2.68,5.67a103.06,103.06,0,0,0-5.58,14.5,99.9,99.9,0,0,0-2.79,10.89,4.5,4.5,0,0,1-.17.63c-1.87,6.29-4,12.49-6.16,18.68-.75,2.18-1.47,4.36-2.22,6.54-.68,2-1.38,3.94-2.07,5.91-.94,2.65-2,5.26-2.8,8-1.44,4.84-3.27,9.54-5,14.29-1.51,4.2-3.32,8.3-4.86,12.49a151.48,151.48,0,0,0-5.31,15.55,111.88,111.88,0,0,1-4.06,12.55,32,32,0,0,0-1.14,3.72,102.56,102.56,0,0,0-2.39,11c-.34,2.58-.78,5.14-1.1,7.71-.4,3.29-.64,6.6-1.1,9.88-.21,1.51-.19,3-.31,4.51a56.52,56.52,0,0,1-.69,6.23c-.69,3.68-1.56,7.33-2.33,11-.31,1.49-.54,3-.79,4.48-.17,1-.35,2-.48,3-.21,1.57-.37,3.14-.57,4.71a21.63,21.63,0,0,1-.32,2.14c-.51,2.1-1.56,5.84-.89,8L14,379a14.23,14.23,0,0,0,2.3-4.16,41.44,41.44,0,0,0,1.22-4.66c.15-.64.29-1.28.44-1.92A156.12,156.12,0,0,1,23.06,352c1.9-5.37,4.33-10.53,6.74-15.7q1-2.16,2.14-4.25c2.41-4.44,4.88-8.84,7.29-13.27,1.48-2.72,2.9-5.48,4.37-8.21s2.86-5.34,4.35-8c1.06-1.89,2.23-3.71,3.33-5.57q4-6.7,7.92-13.4c1.62-2.73,3.37-5.39,4.83-8.2,2.59-5,5.19-10,7.92-14.89q4.93-8.88,9.73-17.83c1.87-3.5,3.61-7.06,5.41-10.59,2.14-4.17,4.24-8.35,6.42-12.5,1.81-3.44,3.59-6.91,5.58-10.24,3-5,6.14-9.77,9.12-14.71,2.8-4.64,6.17-8.87,9.26-13.3,2.19-3.13,4.57-6.11,6.56-9.39a73.62,73.62,0,0,0,4.92-9.13c1.12-2.57,2.36-5.1,3.4-7.71a18.48,18.48,0,0,0,1.22-8.48A12.06,12.06,0,0,0,130.9,140.19ZM14.44,375.92v-1h0c.08.33.15.66.23,1ZM131.12,155.51c-1.43,3.46-3,6.87-4.51,10.3-.32.71-.75,1.37-1.07,2-1,.29-1.33-.37-1.82-.74-.19-.14-.19-.13-1,0,.09,1.06,1.22,1.36,1.62,2.21.14.65-.33,1-.61,1.54-3.22,5.49-7.28,10.39-10.91,15.59-1.16,1.65-2.32,3.3-3.5,4.94-.24.34-.53.65-.82,1-1.73-.09-2.35-1.87-3.81-2.45,0,.32-.16.55-.1.7a4.4,4.4,0,0,0,1.44,1.85,19.82,19.82,0,0,1,1.65,1.49l-1.51,2.48q-1.86,3-3.73,6.09c-.76,1.22-1.52,2.44-2.3,3.66a165,165,0,0,0-8.34,15.14c-1.55,3.09-3.18,6.14-4.76,9.23-2.35,4.62-4.62,9.29-7,13.88q-3.9,7.35-8,14.57c-2.92,5.07-5.71,10.2-8.32,15.42-.9,1.8-1.92,3.55-2.95,5.28q-5.12,8.54-10.26,17.05-1.73,2.86-3.48,5.71c-1.2,2-2.35,4-3.38,6-1.65,3.36-3.47,6.64-5.26,9.93C36,322.63,34,327,31.29,331a8.88,8.88,0,0,0-.83,1.51c-1.7,4.14-4.07,8-5.52,12.21-.6,1.77-1.54,3.42-2.18,5.18-1.65,4.53-3.42,9-4.74,13.68a73.53,73.53,0,0,0-2.65,10.23,1.07,1.07,0,0,1-.92,1A12.89,12.89,0,0,0,15.77,369a54.18,54.18,0,0,1,.81-6.86c.81-5.35,2-10.62,3.11-15.92a59.19,59.19,0,0,0,1.12-9c.16-3.24.5-6.47.85-9.7q.48-4.51,1.16-9a63.17,63.17,0,0,1,1.39-7.65,111.77,111.77,0,0,1,3.36-11.4,93.18,93.18,0,0,0,3.15-10.11c1.12-4.12,2.53-8.12,4-12.11s3-8.26,4.57-12.38c1.36-3.64,2.82-7.25,4.15-10.9.86-2.37,1.55-4.81,2.35-7.2.73-2.18,1.52-4.35,2.27-6.52s1.44-4.23,2.17-6.34,1.37-3.93,2-5.76c.78-.53,1.48.62,2.21-.3L53,227.05a1.89,1.89,0,0,1,0-.62c.22-.84.44-1.68.74-2.49,2-5.48,3.79-11,5.38-16.66.2-.69.31-1.41.47-2.11a110.48,110.48,0,0,1,6.76-20.51c.17-.4.34-.8.52-1.19q2.17-4.59,4.34-9.19c.92-2,1.81-3.92,2.73-5.88a2.08,2.08,0,0,1,.39-.44c1.21-.09,2,1.55,3.51.67-.36-.62-1-.61-1.43-.95L75,166.57a3.75,3.75,0,0,1,.28-1c1.52-2.62,2.73-5.42,4.6-7.83a8.77,8.77,0,0,0,.73-1.07,89.64,89.64,0,0,1,9.5-13.39,45.76,45.76,0,0,1,3.83-4.67,49,49,0,0,1,10-7.19,8,8,0,0,1,7.12-.08,2.89,2.89,0,0,1,1.56,1.43c1.09,2.24,3.11,2.85,5.3,3.2a7.93,7.93,0,0,0,1.08.12c3.75.13,6.94,1.71,10,3.79a2.73,2.73,0,0,1,.78.73c1.06,1.7,2.21,3.32,2.55,5.41A17.3,17.3,0,0,1,131.12,155.51Z" transform="translate(-13.09 -37.19)"/><path class="cls-2" d="M111.36,176.67c0-.7.41-.85.76-.7.91.4,1.81.86,2.68,1.35.56.31,1.07.7,1.6,1.06-.31.79-.51,1-.93.75C114.06,178.32,112.63,177.52,111.36,176.67Z" transform="translate(-13.09 -37.19)"/><path class="cls-2" d="M88.26,159.48c-1.32-.54-2.65-1.06-4-1.64-.29-.13-.49-.49-.69-.76a.45.45,0,0,1,.06-.4.79.79,0,0,1,.36-.2.3.3,0,0,1,.21,0c1.34.67,2.68,1.35,4,2.06.18.09.25.4.36.6Z" transform="translate(-13.09 -37.19)"/><path class="cls-2" d="M96.83,174.1c-1.38.22-1.59.12-4.45-2.13.14-.13.29-.38.41-.37A8.74,8.74,0,0,1,96.83,174.1Z" transform="translate(-13.09 -37.19)"/><path class="cls-2" d="M124.81,152c.22-.13.5-.43.67-.37,1.14.4,2.26.86,3.37,1.34.11.05.18.42.11.56s-.37.32-.5.27c-1.15-.41-2.28-.86-3.41-1.33C125,152.41,124.93,152.21,124.81,152Z" transform="translate(-13.09 -37.19)"/><path class="cls-2" d="M77.16,228.6a36.43,36.43,0,0,1,5.34,3c-.45.2-.62.33-.69.29-1.38-.76-2.76-1.53-4.12-2.33C77.54,229.51,77.49,229.25,77.16,228.6Z" transform="translate(-13.09 -37.19)"/><path class="cls-2" d="M33.52,317.8c-.62.16-.84.29-1,.25a5,5,0,0,1-3-1.86.59.59,0,0,1,0-.56c.11-.12.38-.12.57-.11a.93.93,0,0,1,.38.2Z" transform="translate(-13.09 -37.19)"/><path class="cls-2" d="M46.59,293.73c.16-.61.53-.9.95-.57a29.66,29.66,0,0,1,2.3,2.19c.06.06,0,.28,0,.39a.44.44,0,0,1-.34.2,2.15,2.15,0,0,1-1-.33C47.83,295,47.2,294.34,46.59,293.73Z" transform="translate(-13.09 -37.19)"/><path class="cls-2" d="M88.24,199.22c.51.58.9,1.09,1.35,1.51s1,.79,1.48,1.17c.08.39-.11.59-.43.53A3.16,3.16,0,0,1,88,199.59C87.94,199.54,88,199.48,88.24,199.22Z" transform="translate(-13.09 -37.19)"/><path class="cls-2" d="M116.37,164.57a4.67,4.67,0,0,1-3.56-1.16.4.4,0,0,1,0-.38,1.17,1.17,0,0,1,.48-.34.6.6,0,0,1,.41.06c.76.38,1.52.77,2.27,1.19C116.09,164,116.16,164.25,116.37,164.57Z" transform="translate(-13.09 -37.19)"/><path class="cls-2" d="M103,146.79c-.07.16-.08.27-.12.28a3.07,3.07,0,0,1-3.34-1.15.48.48,0,0,1,.59-.69C101.1,145.71,102,146.23,103,146.79Z" transform="translate(-13.09 -37.19)"/><path class="cls-2" d="M115.87,151.06c-1.16-.58-2.46-.48-3.22-1.62a2.36,2.36,0,0,1,2.37.06A1.21,1.21,0,0,1,115.87,151.06Z" transform="translate(-13.09 -37.19)"/><path class="cls-2" d="M104.59,159.35c-1,.77-1.56.67-2.09.26a5.11,5.11,0,0,1-1.46-2,2.84,2.84,0,0,1,.89,0,.86.86,0,0,1,.44.44A2.74,2.74,0,0,0,104.59,159.35Z" transform="translate(-13.09 -37.19)"/><path class="cls-2" d="M82.67,190.05a5.64,5.64,0,0,1-3.08-1.28c.06-.55.4-.5.64-.39C81.14,188.8,82.29,188.86,82.67,190.05Z" transform="translate(-13.09 -37.19)"/><path class="cls-2" d="M27,337.38a4.3,4.3,0,0,1-2.17-1.83c0-.08.21-.3.34-.44a.18.18,0,0,1,.2,0c.71.47,1.42.95,2.1,1.46.09.07,0,.39,0,.57S27.17,337.27,27,337.38Z" transform="translate(-13.09 -37.19)"/><path class="cls-2" d="M41.3,309.16c0,.56-.24.87-.63.72a3.83,3.83,0,0,1-2-1.77c.45,0,.73-.08.91,0C40.21,308.45,40.78,308.84,41.3,309.16Z" transform="translate(-13.09 -37.19)"/><path class="cls-2" d="M57.77,274.65c-1.19-.38-1.84-1.33-2.69-2.26.3-.14.53-.33.62-.28A3.83,3.83,0,0,1,57.77,274.65Z" transform="translate(-13.09 -37.19)"/><path class="cls-2" d="M65.71,260.23c1.48-.12,2.31.4,3.43,2-.19.07-.43.23-.52.17A19.69,19.69,0,0,1,65.71,260.23Z" transform="translate(-13.09 -37.19)"/><path class="cls-2" d="M84.79,212.63A5.86,5.86,0,0,1,88.23,215c-.37,0-.64.18-.74.1C86.67,214.42,85.45,214.18,84.79,212.63Z" transform="translate(-13.09 -37.19)"/><path class="cls-2" d="M96.56,189.16c-.74-.1-1.06,0-1.25-.18-.68-.5-1.52-.85-1.79-1.76,0-.09.11-.24.21-.46A8,8,0,0,1,96.56,189.16Z" transform="translate(-13.09 -37.19)"/><path class="cls-2" d="M75.9,179.43a5.52,5.52,0,0,1-3.17-1.56C74.19,177.65,74.84,178,75.9,179.43Z" transform="translate(-13.09 -37.19)"/><path class="cls-2" d="M71,248.06c-1.35-.42-2.09-1.46-3-2.73A6.25,6.25,0,0,1,71,248.06Z" transform="translate(-13.09 -37.19)"/><path class="cls-2" d="M80.72,220.09a3.25,3.25,0,0,1-2.92-1.43C78.86,218.69,79.29,218.9,80.72,220.09Z" transform="translate(-13.09 -37.19)"/><path class="cls-2" d="M30.6,324.06a3.12,3.12,0,0,1,2.63,1,.57.57,0,0,1,0,.55.59.59,0,0,1-.55.15A5.2,5.2,0,0,1,30.6,324.06Z" transform="translate(-13.09 -37.19)"/><path class="cls-2" d="M37.94,283.71,40,285.84C38.52,286.07,38,285.52,37.94,283.71Z" transform="translate(-13.09 -37.19)"/><path class="cls-2" d="M103.84,137.73a1.9,1.9,0,0,1-2.18-1,.43.43,0,0,1,.06-.39c.08-.1.27-.21.36-.18A2.9,2.9,0,0,1,103.84,137.73Z" transform="translate(-13.09 -37.19)"/><path class="cls-2" d="M49.37,281.9c-.7,0-.8-.75-1.22-1.08l-1.25-1c.34-.14.55-.32.67-.27A2.73,2.73,0,0,1,49.37,281.9Z" transform="translate(-13.09 -37.19)"/><path class="cls-2" d="M43.29,300.85a2.38,2.38,0,0,1,2.19.26.93.93,0,0,1,.28.7c0,.31-.48.4-.86.16S44,301.34,43.29,300.85Z" transform="translate(-13.09 -37.19)"/><path class="cls-2" d="M35,299.55c-1.14.45-1.46.16-1.93-1.56C33.87,298.17,33.87,298.17,35,299.55Z" transform="translate(-13.09 -37.19)"/><path class="cls-2" d="M66.24,220c-1.18.63-1.18.63-2.27-.5C64.9,219.1,65.53,219.79,66.24,220Z" transform="translate(-13.09 -37.19)"/><path class="cls-2" d="M58.33,245l1.86,1.55c0,.48-.38.46-.61.37A1.64,1.64,0,0,1,58.33,245Z" transform="translate(-13.09 -37.19)"/><path class="cls-2" d="M42.33,267.37c-1.38.21-1.7-.78-2.49-1.56C41.3,265.6,41.79,266.35,42.33,267.37Z" transform="translate(-13.09 -37.19)"/><path class="cls-2" d="M21.86,342.33a3.67,3.67,0,0,1,.93.53.75.75,0,0,1,.08.72.73.73,0,0,1-.71.12,2,2,0,0,1-.6-.81C21.51,342.8,21.72,342.58,21.86,342.33Z" transform="translate(-13.09 -37.19)"/><path class="cls-2" d="M74.84,243.45c.06,0,.14,0,.19,0a1.62,1.62,0,0,1,.92,1.64c0,.05-.09.11-.15.11C75.28,245.19,75.1,244.85,74.84,243.45Z" transform="translate(-13.09 -37.19)"/><path class="cls-2" d="M58,260.25a2.07,2.07,0,0,1-1.92-.46c-.08-.38.11-.57.43-.53C57,259.31,57,259.34,58,260.25Z" transform="translate(-13.09 -37.19)"/><path class="cls-2" d="M67.17,199.88c1.22.27,1.84.57,2.19,1.41C68.34,201.11,68.34,201.11,67.17,199.88Z" transform="translate(-13.09 -37.19)"/><path class="cls-3" d="M167.93,69c-.49.11-1,.35-1.43.47s-.71,0-.8-.65c.4-.37.89-.79,1.34-1.24a18.94,18.94,0,0,0,1.62-1.73,2.71,2.71,0,0,0,.46-1.18A1.07,1.07,0,0,0,168,63.36a2.46,2.46,0,0,0-1.77.68c-.46.46-.88,1-1.37,1.38a3.6,3.6,0,0,1-1,.41,10.45,10.45,0,0,1,.15-2.74,3.77,3.77,0,0,0-.74-2.85,1,1,0,0,0-1.52,0,5.8,5.8,0,0,0-1.49,3.07c-.12,1.22-.12,2.44-.21,3.66-.12,1.56,0,3.17-.84,4.58-.21,0-.38,0-.48,0a1.86,1.86,0,0,0-2.55.25,10.81,10.81,0,0,1-1.37,1,5.1,5.1,0,0,1-1.06.37,8.39,8.39,0,0,1,.25-2.73,5.81,5.81,0,0,0,0-2.78c-.35-1.23-1.39-1.54-2.29-.66a5.41,5.41,0,0,0-1.49,2.82,12.69,12.69,0,0,0,.27,5.78c.11.43.23.85-.38,1.15l-.61-.48a5.66,5.66,0,0,0-.66-.55,1.2,1.2,0,0,0-1.88.28,3.9,3.9,0,0,0-.59,1.57,4.36,4.36,0,0,0,.59,2.7,14.5,14.5,0,0,1,.95,1.94c.16.44,0,.84-.71,1a11.8,11.8,0,0,0-1.1-1.17,2.55,2.55,0,0,0-3.19,0c-.72.83-.16,1.61.3,2.35l.13.18a6.05,6.05,0,0,1,1,3.68A12.44,12.44,0,0,1,143,93.61a39.27,39.27,0,0,1-4.28,6.48,22.76,22.76,0,0,1-4.93,4.82c-1.58,1.13-3.18,2.25-4.66,3.5-1.71,1.43-3.29,3-4.94,4.53a6,6,0,0,1-.74.48,2.17,2.17,0,0,1-.21-.71c.18-1.58.42-3.15.58-4.72a13.43,13.43,0,0,1,2.33-6.22,37.16,37.16,0,0,1,2.44-3,10.61,10.61,0,0,1,6.05-3.54,9.21,9.21,0,0,0,2.37-1,1.26,1.26,0,0,0,.7-1.45,1.57,1.57,0,0,0-1.19-1.14c-.35-.11-.87.25-1.1-.4.54-.48,1.09-.93,1.61-1.43a2.38,2.38,0,0,0,.7-2.37.77.77,0,0,0-1-.61c-.65.3-1.25.69-1.89,1-.48.24-.87.75-1.56.55a2.18,2.18,0,0,1,0-.63,10.35,10.35,0,0,1,.48-1.2,21.24,21.24,0,0,1,2.83-4.08,14.85,14.85,0,0,1,5-4c.45-.23.93-.4,1.37-.65a3.22,3.22,0,0,0,1.42-1.58,1.11,1.11,0,0,0-1-1.66c-.47,0-1,.36-1.45-.27l.42-.92a8.9,8.9,0,0,0,.57-1.16,1.4,1.4,0,0,0-1.5-1.82,3.17,3.17,0,0,0-2.72,1.87c-.23.53-.39,1.08-.57,1.63a4.83,4.83,0,0,1-3.3,3,2.8,2.8,0,0,1-.12-.94,7.42,7.42,0,0,1,.69-1.58c.73-1.15,1.58-2.23,2.27-3.41a17.63,17.63,0,0,1,3.89-4.87,3.74,3.74,0,0,0,.88-1.22,1.29,1.29,0,0,0-.66-1.81,13.11,13.11,0,0,0-1.39-.42,25.73,25.73,0,0,0,1.74-2.2,1.39,1.39,0,0,0-.67-2.15c-.49-.26-1-.48-1.42-.68a2.63,2.63,0,0,1-.06-.59,2.53,2.53,0,0,1,1.76-2,3.65,3.65,0,0,0,2.25-2.72c.12-.56.38-1.16-.19-1.59s-.94.07-1.39.25c-.08,0-.23-.1-.39-.17a9.87,9.87,0,0,1,1.43-3.58A18.56,18.56,0,0,0,145,44.82a17.77,17.77,0,0,1,3.47-5.18,3.89,3.89,0,0,0,.41-.5c.3-.49.63-1,.32-1.6-.23-.44-.9-.48-1.77,0a14.61,14.61,0,0,0-5.58,5,7.67,7.67,0,0,0-.7,1.78,2.69,2.69,0,0,1-1,1.7,2.41,2.41,0,0,1,.06-1.68,4.77,4.77,0,0,0-.06-2.57,1,1,0,0,0-1.84-.49,5.59,5.59,0,0,0-1.08,1.59,9.54,9.54,0,0,0-.85,4.42c.08,1.73.09,3.46.1,5.19a12.47,12.47,0,0,1-.17,1.93.5.5,0,0,1-1,.08,10.1,10.1,0,0,1-.32-1.47c-.09-.64-.13-1.29-.23-1.93s-.24-1.15-.92-1.32c-.49-.12-1,.33-1.29,1.23a2.77,2.77,0,0,0-.12.41,7.73,7.73,0,0,0-.11,3.85c.3,1.11.68,2.2,1,3.29a11.34,11.34,0,0,1,.74,5.65,10.57,10.57,0,0,0-1.54,1.25,13.64,13.64,0,0,0-3,6.14c-.45,2.11-1,4.2-1.52,6.3a.32.32,0,0,1-.1.18c-.1.09-.26.24-.34.21s-.44-.2-.47-.33a15.5,15.5,0,0,1-.21-2.15c0-1.15.13-2.31.07-3.46a11.62,11.62,0,0,1,.85-5.28,7.11,7.11,0,0,0,.36-3.2,1.11,1.11,0,0,0-1.6-.88,3.89,3.89,0,0,0-1.29,1.12c-.58.9-1,1.89-1.52,2.84-.19.35-.22.87-.82.82a16.73,16.73,0,0,0-1-1.64.83.83,0,0,0-1.31.06,7.22,7.22,0,0,0-1.09,3.44,13.29,13.29,0,0,0,.75,4c.82,2.3,1.52,4.66,2.32,7a6.13,6.13,0,0,1,0,3.81,4.11,4.11,0,0,1-.77,1c-.5-.41-.87-.75-1.28-1a3.86,3.86,0,0,0-.94-.5,1.08,1.08,0,0,0-1.46.87,9,9,0,0,0,.18,2.13,13.61,13.61,0,0,0,.56,1.4c.78,2.24,1.72,4.41,1.83,6.85a79.79,79.79,0,0,1-.56,14.25c-.19,1.43-.51,2.85-.62,4.28A67.1,67.1,0,0,1,117,127.46a45.7,45.7,0,0,1-2.11,5.42,3.89,3.89,0,0,1-.52.9l.18.16.25.17c.21.13.42.24.64.35l.09,0,.07,0,.69.22c.23.06.47.1.7.15a6.3,6.3,0,0,1,.41-1,71.46,71.46,0,0,0,4.3-11.77q.45-1.78.87-3.57a2.12,2.12,0,0,1,.7-1.29c2.47-2,4.9-4,7.39-6,2.08-1.65,4.32-3.12,6.26-5,.95-.89,2-1.64,3-2.51A33.68,33.68,0,0,0,145.8,97a55.79,55.79,0,0,0,2.91-5.78,22.39,22.39,0,0,1,1.42-2.41c.12-.17.45-.2.77-.33a3.39,3.39,0,0,1-.34,2.43,5.92,5.92,0,0,0-.18,3,1.14,1.14,0,0,0,1.65.85,2.46,2.46,0,0,0,1.37-1.6c.2-.69.3-1.41.48-2.1.12-.48.21-1,.93-1,.54.5.41,1.17.34,1.79a9.94,9.94,0,0,0,.5,3.83,1,1,0,0,0,1.57.56,2.65,2.65,0,0,0,.91-.88c1-1.78,1.47-3.61.41-5.56a6,6,0,0,1-.37-1.11c.25-.15.36-.27.49-.29a6.4,6.4,0,0,1,1.07-.14c.43,0,.87.09,1.3,0,1.79-.2,3.06-1,3.45-2.45A1.41,1.41,0,0,0,163.42,84a3.89,3.89,0,0,0-1.48.07c-.63.15-1.23.43-1.85.62-.22.07-.54.24-.71-.28.4-.24.84-.46,1.24-.74.82-.58,1.64-1.18,2.43-1.8a2.08,2.08,0,0,0,.74-1.51,1.23,1.23,0,0,0-.74-1.21,1.85,1.85,0,0,0-1.84.2,16.41,16.41,0,0,1-2.38,1.5,35.05,35.05,0,0,1-3.62,1.38c-.58.19-1.14-.07-1.05-.38a1.81,1.81,0,0,1,.59-.81,3.94,3.94,0,0,1,1-.43c1-.38,2-.77,3-1.14a5.09,5.09,0,0,0,3-2.61,7.65,7.65,0,0,1,4.34-3.7,12.12,12.12,0,0,0,2.28-1.2,2.13,2.13,0,0,0,.9-1.66A1.19,1.19,0,0,0,167.93,69Zm-.62-4.14c-.18.6-.19.82-.3.94a3.26,3.26,0,0,1-.6.43l-.2-.23Zm-50.95,68.6-.23-.17.42-.33C116.48,133.1,116.42,133.26,116.36,133.43Zm6.28-25.62c-.33,3.15-.59,6.32-1,9.45a44.28,44.28,0,0,1-1.45,6.53c-.79,2.62-1.82,5.16-2.78,7.72a5.8,5.8,0,0,1-.69,1.17,4.37,4.37,0,0,1,.19-1.09,62.11,62.11,0,0,0,3.37-12.28c.7-4.27,1.06-8.59,1.51-12.89.22-2.08.38-4.17.4-6.25,0-2.38-.07-4.76-.23-7.13a9,9,0,0,0-.68-2.49c-.44-1.22-1-2.4-1.44-3.62a9.73,9.73,0,0,1-.31-1.4c.78-.35,1,.25,1.32.56,1,1,1.74,1,2.6-.37a6.16,6.16,0,0,0,.61-5.21c-.67-2.06-1.45-4.07-2.17-6.11a14.7,14.7,0,0,1-1-4.86c0-.43,0-.87.52-1.14a2.89,2.89,0,0,1,.41.38c1.19,1.39,1.82,1.32,2.61-.34.27-.59.45-1.21.7-1.82.35-.88.36-.87,1.4-1.83.48.06.53.44.5.79a5.61,5.61,0,0,1-.27,1.48,14.33,14.33,0,0,0-.92,5.72c.06,1.8.12,3.6.19,5.4a1.81,1.81,0,0,0,1,1.58,1.12,1.12,0,0,0,1.55-.26,4.64,4.64,0,0,0,.64-1.35c.5-2,1-3.91,1.38-5.89a16.23,16.23,0,0,1,2-5c.14.37.27.55.24.68-.12.49-.32,1-.46,1.44a1,1,0,0,0,1.8.86,8.43,8.43,0,0,0,1-2.58c.46-3.58.72-7.15-.84-10.62a6.13,6.13,0,0,1-.61-4.2,16.32,16.32,0,0,0,.45,2.13c.29.82.73,1.75,1.71,1.73s1.44-.9,1.68-1.76a8.05,8.05,0,0,0,.31-2.12c0-1.73-.06-3.47-.13-5.19a9.41,9.41,0,0,1,.62-4.24c.08-.17.27-.29.45-.48.44.59.18,1.14.11,1.68-.09.78-.2,1.56-.22,2.35a1.13,1.13,0,0,0,.81,1.16,1.24,1.24,0,0,0,1.35-.46,4.86,4.86,0,0,0,.71-1.07,12.27,12.27,0,0,0,.8-2,7.15,7.15,0,0,1,3-4.1c.34-.23.66-.52,1.23-1a3.23,3.23,0,0,1-.19.82c-.57.91-1.2,1.79-1.76,2.71-.67,1.11-1.34,2.22-1.92,3.38a44,44,0,0,0-1.94,4.33c-.5,1.37-.19,1.75,1.36,2.3,0,.67-.57.75-1,.93a3.73,3.73,0,0,0-2.22,2.74,1.84,1.84,0,0,0,.91,2.38c.18.11.42.12.61.22a.69.69,0,0,1,.15,1.22c-.37.34-.79.62-1.18.93A3.56,3.56,0,0,0,138,63.64a.77.77,0,0,0,.84,1c.7,0,1.39-.15,2.1-.23a1.78,1.78,0,0,1-.84,1.56A13.91,13.91,0,0,0,137,70.05a7.56,7.56,0,0,1-.85,1.24,17.06,17.06,0,0,0-2.34,3.88,5,5,0,0,0-.43,1.44A1.35,1.35,0,0,0,135.09,78a6.4,6.4,0,0,0,4.32-3.91c.23-.53.31-1.12.58-1.62a1.05,1.05,0,0,1,1.45-.53c.19.77-.34,1.24-.62,1.78a3.17,3.17,0,0,0-.48,1.85.83.83,0,0,0,1,.83c.4,0,.76-.5,1.32,0a6.84,6.84,0,0,1-1,.71c-4.24,2-6.95,5.51-9.09,9.52a8.91,8.91,0,0,0-.76,2.46.93.93,0,0,0,1.26,1,7.71,7.71,0,0,0,1.17-.54c.32-.16.63-.35.95-.53l.75-.37c.43.4,0,.54-.16.68-.49.41-1.06.75-1.54,1.19a6.53,6.53,0,0,0-1.1,1.3.79.79,0,0,0,.7,1.23c.71,0,1.42,0,2.16,0-.13.65-.68.7-1.13.85-.82.26-1.66.47-2.48.75a9.93,9.93,0,0,0-4,2.56,25.63,25.63,0,0,0-4.14,5.24A13.77,13.77,0,0,0,122.64,107.81Zm34-32.45c.05-.06.23,0,.41,0a2.73,2.73,0,0,1-.36.48c-.06.05-.22,0-.33,0A1.83,1.83,0,0,1,156.66,75.36ZM126,113.46a2.32,2.32,0,0,1,1.51-1.63A2.86,2.86,0,0,1,126,113.46Zm6.29-4.93c-.93.8-1.94,1.49-2.93,2.21a2.55,2.55,0,0,1-.69.18,2.16,2.16,0,0,1,.23-.63,33.32,33.32,0,0,1,6.23-4.6c.14-.09.36,0,.55,0C134.82,107,133.4,107.57,132.27,108.53ZM157,94.73c-.95-2-.38-3.75-.35-5.47.29.56.62,1.1.87,1.68A3.8,3.8,0,0,1,157,94.73Zm5.29-9.37a.66.66,0,0,1,.5.28c.08.16,0,.51-.06.58a3.37,3.37,0,0,1-1.3.61,13.49,13.49,0,0,1-2.13-.07A5.63,5.63,0,0,1,162.24,85.36Zm3.56-13.54a10.26,10.26,0,0,0-5.34,4.51,4.69,4.69,0,0,1-2.6,2.1c-1.17.37-2.32.8-3.45,1.27a3.31,3.31,0,0,0-2.2,2.47c-.22,1.13.38,1.84,1.55,1.65A16,16,0,0,0,160,81.63c.58-.38,1.2-.7,1.86-1.07.12.8-.44,1-.79,1.27a14.75,14.75,0,0,1-1.67,1c-1.9,1.07-2.28,1.89-1.84,4.12-.28.33-.61.7-.91,1.09a1,1,0,0,0-.1,1.18c-.31-.29-.61-.57-.94-.83a1.31,1.31,0,0,0-1.92.14,6.15,6.15,0,0,0-1.24,3c-.15.53-.06,1.15-.56,1.56-.64-.14-.59-.62-.5-1,.24-1,.6-1.93.8-2.92a3.31,3.31,0,0,0-.13-1.46A1,1,0,0,0,150.7,87a3.35,3.35,0,0,0-1.25.8,10.11,10.11,0,0,0-1.88,2.87,43.07,43.07,0,0,1-2.75,5.63,25.94,25.94,0,0,1-4,5c-1.34,1.31-2.76,2.54-4.16,3.78a4.57,4.57,0,0,1-.89.51c0-.56.39-.84.74-1.16a33.72,33.72,0,0,0,7.39-9.76,13.83,13.83,0,0,0,1.77-6.83,7.79,7.79,0,0,0-1-3.93,2.51,2.51,0,0,1-.16-.54.45.45,0,0,1,.77-.07c.37.34.66.76,1,1.08a1.42,1.42,0,0,0,1.8,0,2.48,2.48,0,0,0,1-3c-.25-.67-.63-1.3-.93-2-.37-.8-.36-.81-.24-2.22.55.45,1,.87,1.51,1.21a1.2,1.2,0,0,0,1.59-.15,3,3,0,0,0,.85-2.77c-.11-1-.33-2-.48-3A6.57,6.57,0,0,1,152,69c.07-.16.3-.25.6-.5.1.37.26.62.22.84-.14,1-.34,2-.52,3a9.91,9.91,0,0,0-.17,1.07,1.38,1.38,0,0,0,1.23,1.51c.48,0,1,0,1.56,0a13.87,13.87,0,0,0-.34,1.47,1.2,1.2,0,0,0,1.65,1.33A3.6,3.6,0,0,0,158,76.46a14.61,14.61,0,0,0,3.5-10.39,15.14,15.14,0,0,1,.24-3c0-.22.27-.42.61-.92a7.46,7.46,0,0,1,.24,1.29c0,.79-.19,1.58-.2,2.37,0,1.3.46,1.73,1.85,1.71.14,0,.29,0,.43,0s.12,0,.21.08c-.27.65-.58,1.29-.8,2a1,1,0,0,0,.67,1.19c.61.17,1.24.25,1.86.37C166.52,71.62,166.13,71.71,165.8,71.82Z" transform="translate(-13.09 -37.19)"/><path class="cls-3" d="M167.31,64.83" transform="translate(-13.09 -37.19)"/><path class="cls-3" d="M166.41,66.2" transform="translate(-13.09 -37.19)"/></svg>